<?xml version="1.0" standalone="no"?>
<!DOCTYPE svg PUBLIC "-//W3C//DTD SVG 20010904//EN"
 "http://www.w3.org/TR/2001/REC-SVG-20010904/DTD/svg10.dtd">
<svg version="1.0" xmlns="http://www.w3.org/2000/svg"
 width="260.000000pt" height="260.000000pt" viewBox="0 0 260.000000 260.000000"
 preserveAspectRatio="xMidYMid meet">
<metadata>
Created by potrace 1.14, written by Peter Selinger 2001-2017
</metadata>
<g transform="translate(0.000000,260.000000) scale(0.100000,-0.100000)"
fill="#000000" stroke="none">
<path d="M890 2585 c0 -9 6 -12 17 -8 11 4 14 3 9 -5 -4 -7 -2 -12 3 -12 6 0
11 5 11 12 0 6 3 9 6 5 16 -16 -10 -45 -52 -57 -24 -7 -47 -17 -50 -21 -3 -5
3 -6 13 -2 15 6 16 4 6 -8 -9 -12 -5 -14 25 -13 23 0 36 5 35 12 -2 7 2 12 7
12 6 0 10 -4 10 -9 0 -14 29 -21 36 -9 4 6 3 8 -3 5 -13 -8 -24 18 -17 38 5
11 11 12 24 5 25 -14 30 -13 24 5 -4 8 -13 15 -22 15 -21 0 -6 13 19 17 16 2
20 -1 15 -13 -4 -9 -1 -23 5 -30 9 -11 8 -14 -1 -14 -10 0 -10 -3 -1 -14 10
-12 8 -15 -8 -18 -19 -3 -19 -4 4 -15 24 -11 25 -10 20 18 -5 29 9 41 18 17 4
-10 6 -10 6 0 1 7 6 10 12 7 6 -5 4 -12 -8 -21 -17 -12 -16 -13 8 -14 15 0 33
8 40 17 12 15 12 16 -1 8 -13 -7 -13 -6 -2 6 11 12 15 11 23 -3 14 -25 33 -24
20 1 -6 10 -7 21 -4 25 3 3 -4 6 -17 6 -20 0 -22 4 -17 34 l5 34 -109 1 c-87
0 -109 -3 -109 -14z"/>
<path d="M14 1395 c13 -10 25 -11 44 -4 14 6 43 7 64 4 25 -5 38 -3 38 4 0 7
-30 11 -82 11 -74 -1 -81 -2 -64 -15z"/>
<path d="M174 1401 c6 -9 103 -7 113 3 4 3 -22 6 -56 6 -34 0 -60 -4 -57 -9z"/>
<path d="M306 1399 c8 -13 114 -11 114 1 0 6 -24 10 -60 9 -32 -1 -57 -6 -54
-10z"/>
<path d="M433 1398 c-3 -6 1 -14 8 -19 9 -5 17 -3 22 7 6 11 12 12 22 4 9 -8
15 -8 20 0 4 6 16 8 27 4 30 -9 89 -11 94 -2 3 4 16 2 30 -4 17 -8 28 -8 35
-1 6 6 27 7 52 3 61 -10 190 -7 194 5 4 13 -495 16 -504 3z"/>
<path d="M1469 1402 c-465 -2 -518 -4 -523 -18 -5 -13 -2 -15 16 -10 13 4 58
9 101 12 57 5 77 3 77 -6 0 -9 4 -9 13 -2 20 16 100 11 122 -8 11 -9 27 -20
35 -24 13 -7 13 -6 0 6 -26 23 -21 36 13 36 37 0 72 -21 62 -37 -3 -6 1 -11 9
-11 9 0 16 7 16 15 0 8 7 15 15 15 8 0 15 4 15 8 0 4 18 8 39 7 21 0 37 -3 34
-7 -2 -5 3 -8 12 -8 9 0 13 5 10 10 -3 6 3 10 14 10 12 0 21 -4 21 -8 0 -5 6
-9 13 -10 6 0 23 -4 36 -8 16 -5 22 -4 18 3 -4 7 8 14 30 18 23 4 38 2 43 -5
6 -9 9 -9 15 -1 5 9 11 9 22 0 10 -9 20 -10 31 -3 24 14 95 18 87 4 -4 -7 2
-7 21 0 18 7 30 7 39 0 9 -8 14 -7 17 2 4 10 9 10 23 -2 15 -12 19 -12 23 -2
3 10 9 9 25 -5 17 -15 20 -16 14 -2 -4 13 1 16 26 13 18 -1 36 -3 40 -3 5 -1
6 -5 3 -10 -3 -5 -15 -7 -27 -4 -12 3 -25 0 -29 -7 -7 -11 -28 -15 -109 -19
-10 -1 -11 -4 -2 -14 9 -11 2 -13 -36 -7 -26 4 -55 5 -63 1 -8 -3 14 -8 50
-11 36 -3 67 -3 70 1 5 7 70 10 70 3 0 -2 -15 -8 -32 -13 l-33 -10 35 0 c19 1
46 0 60 0 24 -2 24 -2 6 -16 -20 -15 -10 -20 18 -9 25 10 19 34 -9 34 -27 0
-33 22 -15 50 8 12 10 11 10 -7 0 -14 6 -23 15 -23 8 0 15 7 15 15 0 9 7 18
15 21 8 4 13 10 10 14 -10 16 12 19 31 5 10 -8 24 -14 29 -15 6 0 3 4 -5 10
-8 5 -11 12 -7 16 4 4 13 2 19 -4 14 -14 32 -16 23 -2 -3 5 7 8 25 7 16 -1 30
-5 30 -9 0 -13 41 -19 55 -8 8 7 26 9 44 5 17 -3 32 -2 36 4 3 6 12 11 18 11
7 0 6 -4 -3 -10 -8 -5 -10 -10 -5 -10 6 0 4 -4 -4 -9 -10 -7 -7 -9 12 -8 18 1
26 7 24 17 -2 12 12 15 75 15 42 0 80 3 84 8 4 4 -89 7 -207 7 -118 1 -257 2
-309 3 -52 1 -327 1 -611 -1z m-52 -18 c-3 -3 -12 -4 -19 -1 -8 3 -5 6 6 6 11
1 17 -2 13 -5z"/>
<path d="M515 1380 c-4 -6 3 -10 14 -10 25 0 27 6 6 13 -8 4 -17 2 -20 -3z"/>
<path d="M1670 1365 c0 -8 4 -15 8 -15 5 0 9 7 9 15 0 8 -4 15 -9 15 -4 0 -8
-7 -8 -15z"/>
<path d="M1820 1370 c0 -5 5 -10 10 -10 6 0 10 5 10 10 0 6 -4 10 -10 10 -5 0
-10 -4 -10 -10z"/>
<path d="M170 1360 c0 -5 5 -10 11 -10 5 0 7 5 4 10 -3 6 -8 10 -11 10 -2 0
-4 -4 -4 -10z"/>
<path d="M200 1366 c0 -8 60 -12 72 -4 8 4 -4 8 -29 8 -24 0 -43 -2 -43 -4z"/>
<path d="M323 1363 c9 -2 25 -2 35 0 9 3 1 5 -18 5 -19 0 -27 -2 -17 -5z"/>
<path d="M570 1359 c0 -5 9 -9 20 -9 11 0 20 4 20 8 0 4 -9 8 -20 9 -11 1 -20
-2 -20 -8z"/>
<path d="M1880 1363 c0 -6 -12 -13 -27 -15 l-28 -3 27 -6 c34 -8 50 2 38 21
-6 9 -10 10 -10 3z"/>
<path d="M2197 1353 c-20 -9 -37 -22 -37 -30 0 -11 -7 -13 -26 -9 -19 5 -25 3
-22 -6 3 -7 15 -12 26 -10 12 2 22 0 22 -5 0 -4 56 -7 125 -6 71 2 124 -1 120
-6 -3 -5 -15 -7 -27 -3 -14 3 -19 1 -14 -6 7 -12 59 -6 64 9 2 5 10 9 18 9 8
0 14 4 14 9 0 8 -123 5 -148 -4 -8 -3 -12 0 -10 7 3 7 15 15 29 16 13 2 29 8
34 14 7 7 -8 8 -45 3 -30 -4 -58 -12 -61 -17 -3 -5 -26 -8 -50 -5 -36 3 -40 5
-21 11 12 5 22 12 22 17 0 4 15 9 33 11 26 2 28 4 11 9 -11 3 -37 0 -57 -8z"/>
<path d="M433 1353 c9 -2 25 -2 35 0 9 3 1 5 -18 5 -19 0 -27 -2 -17 -5z"/>
<path d="M800 1350 c20 -13 33 -13 25 0 -3 6 -14 10 -23 10 -15 0 -15 -2 -2
-10z"/>
<path d="M855 1350 c-3 -6 1 -7 9 -4 18 7 21 14 7 14 -6 0 -13 -4 -16 -10z"/>
<path d="M1700 1345 c-16 -9 -19 -14 -9 -15 8 0 24 7 35 15 24 18 7 19 -26 0z"/>
<path d="M21 1328 c-10 -26 -5 -41 11 -32 6 4 54 6 109 5 54 0 100 3 103 8 4
5 -21 9 -56 9 -36 0 -80 7 -102 16 -50 21 -55 20 -65 -6z m53 -7 c3 -5 -5 -8
-18 -7 -13 0 -22 4 -19 9 6 10 31 9 37 -2z"/>
<path d="M1778 1343 c6 -2 18 -2 25 0 6 3 1 5 -13 5 -14 0 -19 -2 -12 -5z"/>
<path d="M624 1328 c-3 -4 0 -8 6 -8 6 0 8 -4 5 -10 -3 -5 0 -10 9 -10 21 0
46 11 46 20 0 11 -60 18 -66 8z"/>
<path d="M710 1325 c0 -11 5 -15 16 -11 8 3 12 2 9 -4 -3 -6 -2 -10 4 -10 5 0
13 5 16 10 4 6 15 8 25 5 10 -3 21 -1 24 4 4 5 -2 10 -11 10 -10 0 -33 3 -50
7 -27 5 -33 3 -33 -11z"/>
<path d="M991 1324 c13 -16 29 -19 29 -5 0 5 -9 11 -21 14 -16 4 -18 3 -8 -9z"/>
<path d="M1214 1325 c-10 -8 -14 -15 -8 -15 5 0 19 7 30 15 10 8 14 15 8 15
-5 0 -19 -7 -30 -15z"/>
<path d="M1459 1332 c11 -8 11 -10 0 -14 -8 -3 5 -8 29 -13 33 -5 47 -3 61 9
10 9 21 13 26 9 4 -5 5 -2 1 5 -9 15 -66 16 -66 1 0 -6 -7 -8 -15 -5 -38 15
-50 18 -36 8z"/>
<path d="M2380 1329 c0 -5 9 -9 20 -9 11 0 20 2 20 4 0 2 -9 6 -20 9 -11 3
-20 1 -20 -4z"/>
<path d="M2485 1329 c-5 -6 9 -9 39 -8 24 2 43 6 40 11 -7 12 -72 10 -79 -3z"/>
<path d="M2580 1330 c0 -5 5 -10 11 -10 5 0 7 5 4 10 -3 6 -8 10 -11 10 -2 0
-4 -4 -4 -10z"/>
<path d="M475 1320 l-40 -7 32 -8 c18 -4 30 -11 27 -16 -3 -5 30 -9 73 -8 59
1 71 3 50 9 -16 5 -34 13 -40 18 -19 15 -58 19 -102 12z m70 -20 c3 -5 -1 -10
-9 -10 -8 0 -18 5 -21 10 -3 6 1 10 9 10 8 0 18 -4 21 -10z"/>
<path d="M585 1320 c-3 -5 -1 -10 4 -10 6 0 11 5 11 10 0 6 -2 10 -4 10 -3 0
-8 -4 -11 -10z"/>
<path d="M935 1320 c3 -5 10 -10 16 -10 5 0 9 5 9 10 0 6 -7 10 -16 10 -8 0
-12 -4 -9 -10z"/>
<path d="M1326 1321 c-3 -5 9 -11 27 -14 30 -4 46 -2 36 7 -11 9 -58 15 -63 7z"/>
<path d="M1620 1320 c-21 -7 -21 -8 -5 -9 11 0 27 4 35 9 18 11 5 11 -30 0z"/>
<path d="M833 1306 c16 -12 12 -13 -32 -10 -28 2 -53 -1 -56 -6 -3 -5 -12 -7
-20 -3 -8 3 -15 1 -15 -3 0 -5 35 -9 77 -9 43 0 93 -3 111 -7 21 -5 31 -4 27
2 -3 6 -17 10 -30 10 -15 0 -26 7 -30 20 -4 12 -15 20 -28 20 -21 -1 -21 -1
-4 -14z"/>
<path d="M1038 1313 c7 -3 16 -2 19 1 4 3 -2 6 -13 5 -11 0 -14 -3 -6 -6z"/>
<path d="M1263 1313 c9 -2 25 -2 35 0 9 3 1 5 -18 5 -19 0 -27 -2 -17 -5z"/>
<path d="M1400 1316 c0 -2 9 -6 20 -9 11 -3 18 -1 14 4 -5 9 -34 13 -34 5z"/>
<path d="M1770 1310 c0 -5 7 -7 15 -4 8 4 15 8 15 10 0 2 -7 4 -15 4 -8 0 -15
-4 -15 -10z"/>
<path d="M333 1294 c-16 -12 -15 -13 12 -13 17 0 43 5 59 12 l28 12 -41 1
c-22 1 -49 -5 -58 -12z"/>
<path d="M965 1300 c-4 -6 3 -10 14 -10 25 0 27 6 6 13 -8 4 -17 2 -20 -3z"/>
<path d="M2486 1295 c18 -14 18 -16 1 -29 -16 -13 -16 -14 5 -20 13 -3 37 -6
53 -6 25 1 27 2 12 11 -9 5 -21 8 -26 4 -5 -3 -13 0 -16 6 -5 7 7 8 39 4 31
-5 46 -4 46 4 0 6 -13 11 -29 11 -17 0 -33 5 -37 11 -4 8 0 9 15 4 11 -3 29
-2 38 4 14 8 1 10 -51 11 -64 0 -68 -1 -50 -15z"/>
<path d="M280 1290 c0 -5 5 -10 11 -10 5 0 7 5 4 10 -3 6 -8 10 -11 10 -2 0
-4 -4 -4 -10z"/>
<path d="M925 1290 c4 -6 11 -8 16 -5 14 9 11 15 -7 15 -8 0 -12 -5 -9 -10z"/>
<path d="M1033 1293 c9 -2 25 -2 35 0 9 3 1 5 -18 5 -19 0 -27 -2 -17 -5z"/>
<path d="M1253 1293 c9 -2 23 -2 30 0 6 3 -1 5 -18 5 -16 0 -22 -2 -12 -5z"/>
<path d="M1789 1290 c-9 -5 -53 -8 -98 -7 -82 4 -107 -5 -50 -17 17 -3 67 -6
111 -6 44 0 87 -4 96 -8 9 -5 44 -6 77 -3 55 6 57 7 26 14 -18 4 -60 7 -92 7
-54 0 -77 11 -46 23 6 3 8 6 2 6 -5 0 -17 -4 -26 -9z"/>
<path d="M238 1283 c7 -3 16 -2 19 1 4 3 -2 6 -13 5 -11 0 -14 -3 -6 -6z"/>
<path d="M668 1283 c7 -3 16 -2 19 1 4 3 -2 6 -13 5 -11 0 -14 -3 -6 -6z"/>
<path d="M1224 1276 c5 -14 2 -17 -9 -12 -9 3 -13 2 -10 -3 3 -5 -3 -12 -12
-14 -38 -10 292 -12 335 -3 26 6 26 6 8 -9 -19 -15 -19 -15 6 -15 13 0 33 8
42 19 15 17 15 19 1 25 -9 3 -46 1 -83 -4 -85 -12 -186 -12 -157 0 14 6 3 9
-40 9 -34 1 -67 7 -74 14 -12 10 -13 9 -7 -7z"/>
<path d="M1380 1280 c0 -5 7 -7 15 -4 8 4 15 8 15 10 0 2 -7 4 -15 4 -8 0 -15
-4 -15 -10z"/>
<path d="M1458 1283 c12 -2 30 -2 40 0 9 3 -1 5 -23 4 -22 0 -30 -2 -17 -4z"/>
<path d="M140 1270 c-27 -4 -35 -8 -20 -9 l25 -2 -25 -14 c-31 -18 -64 -21
-40 -4 12 9 11 9 -5 4 -11 -5 -32 -10 -47 -13 -31 -5 -38 -27 -10 -34 9 -3 55
-4 101 -2 60 1 80 -1 72 -9 -6 -6 -43 -11 -83 -12 -113 -3 -108 -2 -108 -35 0
-29 2 -30 48 -31 35 0 42 -3 27 -9 -11 -5 -32 -9 -47 -9 -18 -1 -28 -6 -28
-16 0 -10 10 -15 28 -15 15 -1 50 -2 77 -4 28 -2 82 0 120 4 64 7 59 7 -60 10
-108 2 -121 4 -75 10 30 4 109 6 175 5 66 -2 104 0 85 4 l-35 7 33 7 c19 4 42
2 52 -3 10 -6 39 -10 64 -10 34 0 46 -4 46 -15 0 -17 3 -18 50 -6 19 5 59 12
89 16 44 5 53 3 48 -8 -4 -12 -1 -12 18 -3 13 6 21 15 18 20 -4 6 2 6 13 2 24
-10 208 -8 235 2 12 5 44 4 72 -1 53 -9 81 -10 191 -5 88 4 62 15 -56 24 -54
3 -95 10 -93 15 10 15 -66 23 -80 8 -11 -10 -37 -13 -101 -11 -48 2 -82 7 -75
11 7 5 -15 7 -48 7 -34 -1 -61 2 -61 6 0 4 6 8 13 9 35 2 -54 18 -140 24 -54
5 -90 11 -80 14 9 4 -16 6 -57 6 -41 0 -72 -3 -69 -7 2 -5 16 -9 31 -10 16 0
8 -3 -18 -7 -41 -5 -59 1 -60 21 0 4 10 10 23 14 21 6 21 7 3 14 -15 5 -138 4
-174 -1 -4 -1 -18 0 -32 1 -24 2 -24 3 5 10 19 5 23 8 11 9 -20 1 -20 1 0 16
10 8 15 14 9 13 -5 0 -30 -4 -55 -8z m140 -80 c-20 -13 -43 -13 -35 0 3 6 16
10 28 10 18 0 19 -2 7 -10z m215 -34 c-11 -7 -55 -15 -99 -18 -43 -3 -81 -10
-85 -16 -3 -5 -53 -13 -109 -17 -72 -4 -102 -3 -97 4 4 7 -9 12 -37 13 l-43 1
43 4 c23 2 42 9 42 14 0 6 42 10 108 10 87 0 241 9 287 17 5 1 1 -4 -10 -12z
m100 3 c-16 -7 -12 -8 16 -5 25 3 42 -2 60 -16 l24 -20 -34 6 c-18 3 -62 6
-97 6 -35 0 -64 4 -64 8 0 15 43 31 80 31 29 0 32 -2 15 -10z m173 -36 c-10
-2 -28 -2 -40 0 -13 2 -5 4 17 4 22 1 32 -1 23 -4z m-200 -20 c-10 -2 -28 -2
-40 0 -13 2 -5 4 17 4 22 1 32 -1 23 -4z m369 1 c-3 -3 -12 -4 -19 -1 -8 3 -5
6 6 6 11 1 17 -2 13 -5z"/>
<path d="M114 1128 c-3 -4 13 -8 35 -8 22 0 43 4 46 10 4 6 -10 9 -35 8 -22
-1 -43 -5 -46 -10z"/>
<path d="M1035 1263 c3 -8 5 -17 5 -19 0 -9 22 -3 35 10 12 12 10 14 -16 18
-23 4 -29 1 -24 -9z"/>
<path d="M2458 1273 c7 -3 16 -2 19 1 4 3 -2 6 -13 5 -11 0 -14 -3 -6 -6z"/>
<path d="M1130 1259 c0 -5 5 -7 10 -4 6 3 10 8 10 11 0 2 -4 4 -10 4 -5 0 -10
-5 -10 -11z"/>
<path d="M2148 1265 c-10 -11 -109 -22 -114 -14 -3 5 -15 9 -27 9 -21 -1 -21
-1 3 -15 15 -9 49 -14 87 -13 71 2 91 9 70 26 -8 7 -16 9 -19 7z"/>
<path d="M2296 1258 c3 -4 -6 -12 -20 -18 -14 -5 -26 -14 -26 -19 0 -6 -29 -8
-72 -4 -52 4 -70 2 -63 -5 11 -12 201 -19 212 -8 4 3 -9 6 -27 6 l-34 0 24 22
c16 15 25 18 28 10 3 -10 7 -10 18 -1 22 18 17 28 -16 27 -16 -1 -27 -5 -24
-10z"/>
<path d="M13 1253 c9 -2 23 -2 30 0 6 3 -1 5 -18 5 -17 0 -22 -2 -12 -5z"/>
<path d="M275 1250 c-18 -8 -17 -9 8 -9 16 -1 26 3 22 9 -3 6 -7 10 -8 9 -1 0
-11 -4 -22 -9z"/>
<path d="M405 1241 c-7 -13 36 -26 44 -14 3 6 13 13 21 16 8 3 -2 6 -22 6 -20
1 -39 -3 -43 -8z"/>
<path d="M605 1240 c-22 -4 -36 -8 -31 -9 6 0 2 -7 -8 -14 -15 -11 -11 -13 31
-15 26 -1 65 -4 86 -8 24 -4 37 -2 37 5 0 7 22 11 55 11 30 0 55 -4 55 -10 0
-5 10 -11 23 -11 18 -1 16 -3 -8 -9 -25 -6 -21 -7 23 -7 41 0 50 2 42 12 -18
22 5 27 100 23 89 -3 128 5 68 14 -18 3 -73 6 -121 7 -48 1 -95 5 -104 8 -11
4 -14 2 -9 -5 5 -8 0 -12 -14 -12 -14 0 -19 4 -14 12 5 8 2 9 -9 5 -10 -3 -17
-3 -17 1 0 10 -133 12 -185 2z m268 -37 c-7 -2 -19 -2 -25 0 -7 3 -2 5 12 5
14 0 19 -2 13 -5z"/>
<path d="M1652 1241 c52 -7 82 -25 33 -19 -19 2 -36 -3 -47 -14 -10 -10 -24
-18 -30 -18 -10 0 -10 2 0 9 8 4 -31 10 -95 14 -64 4 -112 2 -117 -3 -7 -7 3
-11 27 -12 20 -1 51 -2 68 -3 17 -1 36 -9 41 -18 6 -12 23 -17 61 -17 37 0 48
-3 37 -10 -8 -5 -10 -10 -4 -10 6 0 17 6 23 14 9 11 9 15 -1 19 -9 4 -9 6 -1
6 6 1 19 -6 28 -15 13 -13 34 -16 123 -13 l107 4 -25 -24 c-14 -13 -17 -18 -7
-11 18 13 73 12 287 -10 77 -8 143 -8 200 -2 50 5 92 6 102 0 22 -11 138 -8
138 3 0 12 -152 16 -300 9 -69 -3 -180 10 -180 21 0 5 25 9 56 9 34 0 53 -4
49 -10 -3 -5 -2 -10 4 -10 5 0 11 5 13 11 2 7 55 12 156 13 83 0 152 4 152 8
0 4 12 8 28 10 15 2 -103 4 -263 4 -159 1 -338 3 -397 4 -59 2 -110 1 -113 -2
-3 -3 -28 -1 -57 3 -28 5 -54 6 -58 4 -4 -2 -16 2 -26 11 -18 14 -18 15 4 4
14 -7 22 -7 22 0 0 6 38 8 110 4 120 -6 160 0 140 19 -10 9 -14 9 -17 0 -6
-15 -49 -17 -58 -3 -4 6 -12 7 -18 3 -21 -13 -57 -12 -71 3 -8 8 -21 11 -29 8
-8 -3 -18 -1 -22 5 -3 6 -32 10 -63 10 l-57 -2 47 -6z m456 -96 c2 -2 -32 -3
-75 -2 -70 0 -73 1 -28 7 43 5 93 3 103 -5z"/>
<path d="M2370 1235 c7 -8 21 -15 31 -15 12 0 16 5 13 15 -4 8 -17 15 -31 15
-22 0 -24 -2 -13 -15z"/>
<path d="M1147 1224 c-18 -18 -2 -24 66 -23 46 0 65 3 52 8 -31 13 -110 22
-118 15z"/>
<path d="M2350 1220 c0 -5 5 -10 10 -10 6 0 10 5 10 10 0 6 -4 10 -10 10 -5 0
-10 -4 -10 -10z"/>
<path d="M2515 1219 c-11 -16 -1 -19 13 -3 7 8 8 14 3 14 -5 0 -13 -5 -16 -11z"/>
<path d="M1300 1209 c0 -5 9 -9 19 -9 11 0 22 4 25 9 3 5 -6 9 -19 9 -14 0
-25 -4 -25 -9z"/>
<path d="M2460 1200 c0 -5 7 -10 16 -10 8 0 12 5 9 10 -3 6 -10 10 -16 10 -5
0 -9 -4 -9 -10z"/>
<path d="M2545 1200 c-16 -7 -13 -9 18 -9 20 -1 37 4 37 9 0 12 -27 12 -55 0z"/>
<path d="M968 1183 c12 -2 30 -2 40 0 9 3 -1 5 -23 4 -22 0 -30 -2 -17 -4z"/>
<path d="M1355 1180 l-40 -6 50 -11 c27 -6 53 -9 57 -7 4 3 23 5 43 6 49 2 56
18 8 19 -21 1 -47 2 -58 3 -11 1 -38 -1 -60 -4z"/>
<path d="M1160 1170 c0 -5 7 -10 15 -10 8 0 15 5 15 10 0 6 -7 10 -15 10 -8 0
-15 -4 -15 -10z"/>
<path d="M1563 1143 c9 -2 25 -2 35 0 9 3 1 5 -18 5 -19 0 -27 -2 -17 -5z"/>
<path d="M1305 1120 c11 -5 74 -8 140 -8 114 1 116 2 45 8 -110 11 -209 11
-185 0z"/>
<path d="M1675 1120 c-44 -3 -75 -7 -70 -8 6 -1 3 -7 -5 -12 -12 -8 -9 -10 12
-10 15 0 30 5 33 10 3 6 15 10 26 10 11 0 18 -4 15 -9 -4 -5 0 -12 6 -14 7 -3
-13 -6 -44 -6 -56 -1 -77 -14 -40 -25 9 -3 -35 -3 -98 0 -63 3 -153 5 -199 4
-57 -1 -81 2 -77 9 9 13 -16 15 -30 2 -5 -5 -22 -11 -39 -14 -27 -4 -27 -4 7
-6 20 0 39 -4 41 -8 3 -5 -74 -9 -170 -10 -172 -1 -203 3 -120 18 28 5 15 7
-43 4 -47 -3 -93 -5 -103 -5 -10 0 -16 -4 -12 -9 3 -6 -12 -12 -32 -14 -23 -2
-6 -5 42 -7 79 -4 79 -4 -45 -12 -232 -15 -435 -23 -440 -17 -3 3 -11 8 -17
10 -7 2 64 5 157 7 93 1 180 7 192 12 20 9 19 10 -10 6 -17 -3 -43 0 -57 6
-25 11 -168 3 -395 -22 -54 -6 -88 -6 -94 0 -13 13 -66 13 -66 0 0 -5 6 -10
13 -10 6 -1 57 -5 112 -11 235 -23 297 -26 439 -17 208 12 335 14 329 6 -2 -5
-30 -8 -61 -9 -97 -1 -108 -18 -12 -18 94 -1 162 8 155 19 -2 4 35 7 83 7 88
0 90 -14 2 -17 l-45 -2 35 -10 c47 -12 88 -20 73 -12 -28 13 -10 24 40 25 44
1 48 2 22 9 -17 4 36 7 125 7 111 -1 126 -2 51 -4 -71 -3 -107 -8 -117 -18
-12 -11 2 -13 94 -13 59 -1 159 3 222 9 88 6 117 6 125 -4 6 -8 43 -13 100
-14 78 -1 87 0 66 11 -20 11 -8 12 80 8 57 -2 107 -9 110 -15 4 -6 17 -6 35 1
22 8 24 11 9 12 -11 0 -29 7 -39 15 -17 13 -8 14 85 13 57 0 122 -6 144 -13
22 -7 85 -13 140 -14 55 -1 104 -6 109 -11 5 -5 1 -7 -10 -5 -10 2 -100 6
-199 8 -163 4 -176 3 -140 -9 l40 -14 -57 6 c-32 3 -58 2 -58 -3 0 -4 -55 -6
-122 -5 -131 4 -248 -4 -248 -17 0 -5 12 -6 28 -4 21 4 24 2 12 -6 -8 -6 -31
-11 -50 -11 -26 0 -31 3 -20 10 12 8 10 10 -10 11 -14 1 -28 1 -32 0 -5 0 -8
4 -8 10 0 6 -8 8 -20 4 -37 -12 -142 -8 -150 5 -6 9 -19 10 -55 2 -26 -5 -59
-6 -75 -2 -15 4 -47 4 -71 -1 -57 -11 -61 -11 -55 0 6 10 -63 26 -72 17 -3 -3
0 -6 6 -6 7 0 12 -4 12 -10 0 -5 -7 -7 -15 -4 -8 4 -23 3 -32 -1 -10 -5 -135
-9 -278 -11 -143 -1 -280 -3 -305 -3 -25 -1 -94 1 -155 4 -76 3 -104 2 -90 -5
14 -7 6 -8 -30 -3 -54 8 -156 7 -221 -2 -41 -6 -42 -7 -42 -47 l-1 -40 37 5
c20 3 53 8 72 12 25 5 31 4 21 -3 -8 -6 -41 -14 -73 -17 l-58 -7 0 -44 c0 -43
1 -44 33 -45 17 0 41 -4 52 -9 19 -8 19 -9 -2 -9 -13 -1 -23 -4 -23 -8 0 -8
86 -9 347 -2 105 3 155 0 163 -7 20 -20 -9 -28 -110 -30 -52 -2 -124 -7 -160
-11 -36 -4 -79 -5 -95 -2 -28 6 -28 7 10 9 l40 2 -50 9 c-32 6 -67 5 -98 -2
-27 -6 -61 -9 -78 -5 -21 4 -29 2 -29 -9 0 -9 14 -15 38 -18 l37 -4 -37 -1
c-39 -2 -55 -22 -18 -22 11 0 20 -4 20 -10 0 -5 -9 -10 -20 -10 -20 0 -20 -7
-20 -285 l0 -285 1300 0 1300 0 -2 428 c-3 348 -5 426 -16 424 -8 -1 -11 2 -7
8 3 6 11 8 16 5 5 -4 9 8 9 25 0 30 -1 31 -37 26 -21 -3 -30 -3 -20 0 43 13
71 77 43 96 -7 5 -7 8 2 8 6 0 12 3 12 8 0 9 -104 7 -121 -3 -7 -5 -10 -4 -6
2 4 6 -5 10 -21 10 -62 0 -181 11 -192 18 -8 5 -11 3 -8 -6 2 -8 17 -15 31
-17 15 -2 27 -7 27 -11 0 -10 -69 -1 -76 10 -3 5 -13 9 -22 8 -14 0 -13 -2 3
-9 12 -6 -18 -7 -80 -3 -55 3 -105 9 -110 14 -6 4 -61 9 -123 11 -62 2 -112 6
-112 11 0 4 -19 8 -42 8 -24 1 -34 3 -23 6 45 10 51 16 25 23 -18 6 -9 8 35 9
43 1 56 4 45 11 -16 10 -26 10 -155 0z m38 -67 c-13 -2 -35 -2 -50 0 -16 2 -5
4 22 4 28 0 40 -2 28 -4z m207 -34 c24 -1 23 -1 -5 -10 -31 -9 -283 5 -294 17
-3 4 57 4 134 0 77 -3 151 -6 165 -7z m-602 -6 c-15 -2 -42 -2 -60 0 -18 2 -6
4 27 4 33 0 48 -2 33 -4z m1252 3 c0 -3 -4 -8 -10 -11 -5 -3 -10 -1 -10 4 0 6
5 11 10 11 6 0 10 -2 10 -4z m-1142 -13 c-16 -2 -40 -2 -55 0 -16 2 -3 4 27 4
30 0 43 -2 28 -4z m552 -23 c26 -5 31 -9 18 -14 -10 -5 -31 1 -55 14 -21 12
-29 18 -18 14 11 -4 36 -10 55 -14z m420 10 c10 -7 -10 -9 -65 -9 -55 1 -72 3
-55 9 36 11 102 11 120 0z m125 0 c4 -6 -8 -10 -29 -10 -19 0 -38 5 -41 10 -4
6 8 10 29 10 19 0 38 -4 41 -10z m-997 -17 c-10 -2 -26 -2 -35 0 -10 3 -2 5
17 5 19 0 27 -2 18 -5z m795 -50 c-7 -2 -19 -2 -25 0 -7 3 -2 5 12 5 14 0 19
-2 13 -5z m-198 -39 c-70 -15 -164 -19 -149 -5 10 11 63 17 149 18 l60 1 -60
-14z m148 -5 c16 -15 8 -17 -100 -23 -65 -3 -134 -8 -153 -11 -19 -2 -8 2 25
10 33 8 94 15 135 16 41 1 63 4 48 6 -16 2 -28 8 -28 13 0 15 55 6 73 -11z
m80 5 c-23 -17 -41 -17 -59 0 -12 12 -7 14 32 14 41 0 44 -1 27 -14z m54 10
c-3 -3 -12 -4 -19 -1 -8 3 -5 6 6 6 11 1 17 -2 13 -5z m71 -11 c-10 -2 -18 -9
-18 -14 0 -15 -27 -10 -34 6 -4 12 3 15 32 14 20 -1 29 -3 20 -6z m-2190 -15
c22 0 8 -4 -33 -8 -78 -8 -175 -11 -160 -4 19 8 130 22 143 18 8 -2 30 -5 50
-6z m1509 6 c-3 -3 -12 -4 -19 -1 -8 3 -5 6 6 6 11 1 17 -2 13 -5z m101 -1
c-15 -2 -42 -2 -60 0 -18 2 -6 4 27 4 33 0 48 -2 33 -4z m59 1 c-3 -3 -12 -4
-19 -1 -8 3 -5 6 6 6 11 1 17 -2 13 -5z m-1484 -11 c-18 -2 -48 -2 -65 0 -18
2 -4 4 32 4 36 0 50 -2 33 -4z m1947 -3 c0 -5 -7 -7 -15 -4 -8 4 -15 8 -15 10
0 2 7 4 15 4 8 0 15 -4 15 -10z m-1797 -7 c-7 -2 -19 -2 -25 0 -7 3 -2 5 12 5
14 0 19 -2 13 -5z m95 0 c-10 -2 -28 -2 -40 0 -13 2 -5 4 17 4 22 1 32 -1 23
-4z m1792 -3 c-8 -5 -19 -10 -25 -10 -5 0 -3 5 5 10 8 5 20 10 25 10 6 0 3 -5
-5 -10z m-1227 -7 c-7 -2 -21 -2 -30 0 -10 3 -4 5 12 5 17 0 24 -2 18 -5z
m172 -3 c15 -6 8 -9 -27 -9 -27 -1 -48 4 -48 9 0 12 47 12 75 0z m494 6 c-2
-2 -56 -6 -119 -9 -71 -4 -107 -3 -95 3 19 8 223 14 214 6z m-616 -13 c-7 -2
-19 -2 -25 0 -7 3 -2 5 12 5 14 0 19 -2 13 -5z m250 0 c-7 -2 -21 -2 -30 0
-10 3 -4 5 12 5 17 0 24 -2 18 -5z m70 0 c-7 -2 -21 -2 -30 0 -10 3 -4 5 12 5
17 0 24 -2 18 -5z m707 -9 c0 -2 -24 -4 -52 -3 -33 0 -46 3 -35 8 18 7 87 3
87 -5z m-373 -20 c-3 -3 -12 -4 -19 -1 -8 3 -5 6 6 6 11 1 17 -2 13 -5z m-310
-40 c-3 -3 -12 -4 -19 -1 -8 3 -5 6 6 6 11 1 17 -2 13 -5z m56 -11 c-7 -2 -21
-2 -30 0 -10 3 -4 5 12 5 17 0 24 -2 18 -5z m-810 -10 c-7 -2 -19 -2 -25 0 -7
3 -2 5 12 5 14 0 19 -2 13 -5z m462 -22 c30 -7 7 -9 -88 -10 -83 -1 -126 3
-122 9 7 12 153 12 210 1z m-925 -13 c0 -4 -46 -7 -102 -7 -67 1 -89 4 -63 8
61 9 165 9 165 -1z m95 3 c3 -5 -10 -8 -31 -6 -48 4 -56 15 -11 15 20 0 38 -4
42 -9z m210 -1 c14 -6 -4 -9 -55 -9 -52 -1 -70 2 -60 9 18 12 88 12 115 0z
m111 3 c-10 -11 -36 -12 -36 -2 0 5 10 9 22 9 12 0 18 -3 14 -7z m72 0 c-10
-2 -26 -2 -35 0 -10 3 -2 5 17 5 19 0 27 -2 18 -5z m145 -9 c9 -3 17 -1 17 5
0 6 10 11 23 11 16 0 18 -3 9 -9 -18 -11 18 -21 80 -21 26 0 49 -4 52 -9 3 -5
-45 -8 -107 -8 -62 0 -96 3 -77 6 31 6 28 7 -29 13 -35 3 -68 12 -75 18 -8 10
0 11 39 6 28 -4 58 -9 68 -12z m-178 -14 c15 -6 7 -9 -30 -9 -37 0 -45 3 -30
9 11 5 25 9 30 9 6 0 19 -4 30 -9z m638 3 c-13 -2 -33 -2 -45 0 -13 2 -3 4 22
4 25 0 35 -2 23 -4z m327 -3 l45 -3 -44 -7 c-45 -7 -88 -3 -96 10 -2 4 8 6 23
4 15 -1 47 -3 72 -4z m-167 -7 c-13 -2 -35 -2 -50 0 -16 2 -5 4 22 4 28 0 40
-2 28 -4z m54 1 c-3 -3 -12 -4 -19 -1 -8 3 -5 6 6 6 11 1 17 -2 13 -5z m371
-1 c-10 -2 -28 -2 -40 0 -13 2 -5 4 17 4 22 1 32 -1 23 -4z m-698 -23 c0 -5
-7 -10 -15 -10 -8 0 -15 5 -15 10 0 6 7 10 15 10 8 0 15 -4 15 -10z m-185 -21
c5 -5 -11 -9 -42 -9 -57 0 -113 9 -113 19 0 9 144 1 155 -10z m275 11 c0 -5
-12 -10 -26 -10 -14 0 -23 4 -19 10 3 6 15 10 26 10 10 0 19 -4 19 -10z m-473
-14 c4 -3 -63 -6 -148 -5 -85 1 -143 4 -129 8 30 9 268 6 277 -3z m33 10 c0
-3 -4 -8 -10 -11 -5 -3 -10 -1 -10 4 0 6 5 11 10 11 6 0 10 -2 10 -4z m543 -3
c-7 -2 -19 -2 -25 0 -7 3 -2 5 12 5 14 0 19 -2 13 -5z m-1113 -27 l35 -13 -40
-6 c-56 -9 -88 -7 -50 4 21 6 10 7 -40 4 -38 -2 -104 -13 -145 -24 -73 -21
-198 -29 -155 -11 16 7 10 9 -25 11 -28 1 -36 3 -21 6 19 4 21 7 10 14 -9 5
12 9 58 9 42 0 75 -5 79 -11 4 -7 9 -8 13 -1 3 6 49 15 101 20 128 13 140 12
180 -2z m108 7 c-15 -2 -42 -2 -60 0 -18 2 -6 4 27 4 33 0 48 -2 33 -4z m195
-20 c-13 -2 -33 -2 -45 0 -13 2 -3 4 22 4 25 0 35 -2 23 -4z m110 -10 c-7 -2
-19 -2 -25 0 -7 3 -2 5 12 5 14 0 19 -2 13 -5z"/>
<path d="M1910 1100 c-21 -7 -19 -8 15 -8 22 0 54 4 70 8 27 7 25 8 -15 8 -25
0 -56 -4 -70 -8z"/>
<path d="M2203 1091 c-240 -6 -327 -20 -137 -22 60 -1 101 -3 92 -6 -10 -2
-18 -9 -18 -14 0 -10 34 -12 69 -2 23 6 23 7 5 14 -11 4 16 8 67 8 55 1 90 -3
98 -11 11 -10 13 -10 7 -1 -6 10 8 12 59 10 40 -1 64 -6 61 -12 -2 -6 13 -12
37 -12 49 -2 71 9 37 18 -24 7 -24 7 -2 8 12 1 22 6 22 11 0 6 -24 10 -54 10
-29 0 -66 2 -82 3 -16 2 -133 1 -261 -2z"/>
<path d="M1468 1083 c7 -3 16 -2 19 1 4 3 -2 6 -13 5 -11 0 -14 -3 -6 -6z"/>
<path d="M433 1063 c15 -2 37 -2 50 0 12 2 0 4 -28 4 -27 0 -38 -2 -22 -4z"/>
<path d="M593 1043 c9 -2 25 -2 35 0 9 3 1 5 -18 5 -19 0 -27 -2 -17 -5z"/>
<path d="M2098 1043 c6 -2 18 -2 25 0 6 3 1 5 -13 5 -14 0 -19 -2 -12 -5z"/>
<path d="M178 1033 c7 -3 16 -2 19 1 4 3 -2 6 -13 5 -11 0 -14 -3 -6 -6z"/>
<path d="M0 963 c0 -10 15 -13 50 -12 59 2 54 15 -7 21 -31 2 -43 0 -43 -9z"/>
<path d="M168 953 c7 -3 16 -2 19 1 4 3 -2 6 -13 5 -11 0 -14 -3 -6 -6z"/>
<path d="M658 928 c6 -6 18 -8 28 -6 14 3 12 5 -9 10 -19 3 -25 2 -19 -4z"/>
<path d="M780 930 c20 -13 230 -13 230 0 0 6 -47 10 -122 10 -83 0 -118 -3
-108 -10z"/>
<path d="M1528 933 c6 -2 18 -2 25 0 6 3 1 5 -13 5 -14 0 -19 -2 -12 -5z"/>
<path d="M18 923 c12 -2 32 -2 45 0 12 2 2 4 -23 4 -25 0 -35 -2 -22 -4z"/>
<path d="M0 686 c0 -9 40 -13 46 -5 3 5 -6 9 -20 9 -14 0 -26 -2 -26 -4z"/>
</g>
</svg>
